<?xml version="1.0" standalone="no"?><!DOCTYPE svg PUBLIC "-//W3C//DTD SVG 1.1//EN" "http://www.w3.org/Graphics/SVG/1.1/DTD/svg11.dtd"><svg t="1570659178416" class="icon" viewBox="0 0 1024 1024" version="1.1" xmlns="http://www.w3.org/2000/svg" p-id="14059" xmlns:xlink="http://www.w3.org/1999/xlink" width="200" height="200"><defs><style type="text/css"></style></defs><path d="M957.59 467.39C936.56 255.62 768.15 87.22 556.38 66.2v-2.22h-89.64v2.22C254.98 87.23 86.59 255.63 65.56 467.39h-2.22v89.65h2.22C86.42 767.16 252.39 934.6 461.85 957.71l-0.08 2.73h94.61v-2.22c211.77-21.02 380.18-189.43 401.21-401.19h2.22v-89.65h-2.22z m-90.47 89.65c-21.27 158.05-152.69 289.49-310.74 310.75v-86.64h-89.64l-2.39 86.3c-156.99-22.26-287.18-153.17-308.34-310.41h86.63v-89.65h-86.63c21.27-158.04 152.68-289.48 310.73-310.75v86.63h89.64v-86.64c158.05 21.26 289.47 152.7 310.74 310.75h-86.61v89.65h86.61z m-355.54-194.7c-82.77 0-149.88 67.1-149.88 149.88 0 82.77 67.1 149.88 149.88 149.88S661.46 595 661.46 512.22s-67.1-149.88-149.88-149.88z" p-id="14060" fill="#0e96da"></path></svg>