<?xml version="1.0" standalone="no"?><!DOCTYPE svg PUBLIC "-//W3C//DTD SVG 1.1//EN" "http://www.w3.org/Graphics/SVG/1.1/DTD/svg11.dtd"><svg t="1570659113279" class="icon" viewBox="0 0 1024 1024" version="1.1" xmlns="http://www.w3.org/2000/svg" p-id="9180" xmlns:xlink="http://www.w3.org/1999/xlink" width="200" height="200"><defs><style type="text/css"></style></defs><path d="M512 0C314.684385 0 154.790698 159.893688 154.790698 357.209302c0 163.295681 108.863787 306.179402 268.757475 347.003323l71.44186 306.179402c3.401993 6.803987 10.20598 13.607973 17.009967 13.607973s13.607973-6.803987 17.009967-13.607973l57.833887-299.375416c163.295681-34.019934 282.365449-180.305648 282.365448-350.405315C869.209302 159.893688 709.315615 0 512 0z m0 170.099668c102.059801 0 187.109635 85.049834 187.109635 187.109634S614.059801 544.318937 512 544.318937s-187.109635-85.049834-187.109635-187.109635S409.940199 170.099668 512 170.099668z" fill="#0f96db" p-id="9181"></path></svg>