<?xml version="1.0" standalone="no"?><!DOCTYPE svg PUBLIC "-//W3C//DTD SVG 1.1//EN" "http://www.w3.org/Graphics/SVG/1.1/DTD/svg11.dtd"><svg t="1570658103027" class="icon" viewBox="0 0 1024 1024" version="1.1" xmlns="http://www.w3.org/2000/svg" p-id="2595" xmlns:xlink="http://www.w3.org/1999/xlink" width="200" height="200"><defs><style type="text/css"></style></defs><path d="M814.08 758.784L644.096 589.824c34.816-48.128 52.224-109.568 43.008-175.104C671.744 305.152 582.656 218.112 471.04 207.872c-150.528-15.36-278.528 112.64-263.168 264.192 10.24 109.568 97.28 200.704 206.848 216.064 65.536 9.216 125.952-9.216 175.104-43.008l169.984 169.984c7.168 7.168 19.456 7.168 26.624 0l26.624-26.624c8.192-9.216 8.192-21.504 1.024-29.696zM283.648 447.488c0-90.112 73.728-164.864 164.864-164.864s164.864 73.728 164.864 164.864-73.728 164.864-164.864 164.864-164.864-72.704-164.864-164.864z" p-id="2596"  fill="#bfbfbf"></path></svg>
